<svg xmlns="http://www.w3.org/2000/svg" width="150" height="150" viewBox="0 0 150 150"><rect width="100%" height="100%" fill="#FFA500"/><path fill="#FFFFFF" d="M47.6 36.375v16.35h-3.28v-16.35h3.28Zm3 4.2h3.04l.14 1.6q.58-.87 1.46-1.35.88-.48 2.04-.48 1.17 0 2 .52.83.52 1.26 1.56.56-.98 1.46-1.53.89-.55 2.11-.55 1.79 0 2.83 1.24 1.04 1.25 1.04 3.78v7.36H64.7v-7.37q0-1.38-.45-1.92t-1.33-.54q-.7 0-1.21.31t-.81.86q0 .21.01.37.01.15.01.31v7.98h-3.27v-7.37q0-1.34-.45-1.9-.45-.56-1.35-.56-.66 0-1.16.26-.5.25-.82.71v8.86H50.6v-12.15Zm30.31 12.15h-3.28q-.18-.42-.31-.88t-.18-.94q-.51.89-1.34 1.47-.82.59-1.97.59-1.91 0-2.94-.99-1.03-.98-1.03-2.68 0-1.78 1.37-2.76 1.38-.99 4.02-.99h1.83v-.96q0-.88-.46-1.36-.46-.48-1.36-.48-.8 0-1.23.38-.43.39-.43 1.08l-3.17-.02-.01-.06q-.08-1.54 1.34-2.66 1.41-1.12 3.71-1.12 2.18 0 3.54 1.11 1.36 1.11 1.36 3.15v5.02q0 .85.13 1.61.13.75.41 1.49Zm-6.28-2.19q.87 0 1.54-.43.67-.42.91-.98v-1.72h-1.83q-1.05 0-1.59.52-.53.52-.53 1.26 0 .61.4.98t1.1.37Zm7.72-3.55v-.23q0-2.88 1.25-4.64 1.25-1.77 3.51-1.77 1.02 0 1.79.46.78.46 1.33 1.32l.26-1.55h2.83v12.09q0 2.37-1.56 3.67-1.55 1.3-4.33 1.3-.92 0-1.95-.25-1.03-.26-1.91-.7l.61-2.44q.75.36 1.53.54.78.19 1.7.19 1.35 0 1.98-.57.64-.56.64-1.75v-1.1q-.54.69-1.27 1.05-.73.36-1.67.36-2.24 0-3.49-1.65-1.25-1.64-1.25-4.33Zm3.28-.23v.23q0 1.6.53 2.51.54.92 1.76.92.75 0 1.27-.28.52-.27.84-.8v-5.28q-.32-.55-.84-.85-.52-.31-1.25-.31-1.2 0-1.76 1.07-.55 1.07-.55 2.79Zm15.58 6.21q-2.62 0-4.2-1.69-1.57-1.68-1.57-4.28v-.45q0-2.7 1.49-4.46 1.49-1.75 3.99-1.74 2.46 0 3.82 1.49 1.36 1.48 1.36 4.01v1.78h-7.26l-.02.07q.09 1.2.8 1.98.72.77 1.94.77 1.09 0 1.81-.22t1.57-.69l.89 2.02q-.74.61-1.94 1.01-1.21.4-2.68.4Zm-.29-10.09q-.91 0-1.44.7-.52.69-.65 1.83l.04.05h4.02v-.29q0-1.04-.49-1.67-.49-.62-1.48-.62Zm-30.15 23.83v16.35H67.5l-6.6-11.17-.07.01v11.16h-3.28v-16.35h3.28l6.6 11.17.07-.02v-11.15h3.27Zm2.29 10.4v-.23q0-2.72 1.51-4.46 1.52-1.73 4.2-1.73 2.7 0 4.23 1.73 1.52 1.73 1.52 4.46v.23q0 2.74-1.52 4.47-1.52 1.72-4.2 1.72-2.7 0-4.22-1.72-1.52-1.73-1.52-4.47Zm3.27-.23v.23q0 1.66.58 2.67.58 1 1.89 1 1.27 0 1.86-1.01.59-1.01.59-2.66v-.23q0-1.62-.6-2.64-.59-1.03-1.88-1.03-1.26 0-1.85 1.03-.59 1.03-.59 2.64Zm10.83-8.94h3.28v2.97h2.05v2.3h-2.05v6.19q0 .71.3 1.01.29.31.78.31.26 0 .44-.03.19-.03.44-.1l.28 2.37q-.5.17-.97.26-.47.08-1.02.08-1.7 0-2.61-.93-.92-.93-.92-2.96v-6.2h-1.77v-2.3h1.77v-2.97Zm-33.13 36.14v2.52h-6.85v6.8H43.9v-16.35h11.27v2.52h-7.99v4.51h6.85Zm1.76 3.36v-.23q0-2.72 1.52-4.45 1.51-1.74 4.2-1.74 2.69 0 4.22 1.73 1.53 1.73 1.53 4.46v.23q0 2.75-1.52 4.47-1.53 1.72-4.21 1.72-2.69 0-4.22-1.72-1.52-1.72-1.52-4.47Zm3.27-.23v.23q0 1.67.58 2.67.59 1.01 1.89 1.01 1.27 0 1.86-1.01.59-1.01.59-2.67v-.23q0-1.62-.6-2.64-.59-1.02-1.87-1.02-1.27 0-1.86 1.03-.59 1.02-.59 2.63Zm17.93 6.19-.29-1.75q-.56.95-1.42 1.47-.87.51-1.99.51-1.92 0-3.01-1.23-1.08-1.23-1.08-3.82v-7.33h3.27v7.35q0 1.33.45 1.91.45.57 1.32.57.79 0 1.35-.25t.92-.75v-8.83h3.28v12.15h-2.8Zm5.22-12.15h3.05l.15 1.74q.6-.94 1.49-1.45.89-.52 1.99-.52 1.84 0 2.87 1.16 1.04 1.15 1.04 3.63v7.59h-3.29v-7.58q0-1.23-.5-1.74-.49-.51-1.49-.51-.65 0-1.17.26-.52.27-.87.75v8.82h-3.27v-12.15Zm12.53 6.41v-.24q0-2.87 1.24-4.64 1.24-1.76 3.5-1.76.91 0 1.64.39.73.4 1.28 1.13v-6.66h3.29v17.52h-2.82l-.27-1.49q-.57.85-1.35 1.28-.78.44-1.79.44-2.24 0-3.48-1.64-1.24-1.64-1.24-4.33Zm3.27-.24v.24q0 1.59.54 2.51.54.91 1.75.91.71 0 1.23-.28.53-.29.87-.84v-5.18q-.34-.57-.86-.89-.52-.32-1.22-.32-1.2 0-1.76 1.07-.55 1.06-.55 2.78Z"/></svg>